<?xml version="1.0" encoding="UTF-8" standalone="no"?>
<!DOCTYPE svg PUBLIC "-//W3C//DTD SVG 1.1//EN" "http://www.w3.org/Graphics/SVG/1.1/DTD/svg11.dtd">
<!-- Created with Vectornator (http://vectornator.io/) -->
<svg height="100%" stroke-miterlimit="10" style="fill-rule:nonzero;clip-rule:evenodd;stroke-linecap:round;stroke-linejoin:round;" version="1.1" viewBox="0 0 131 26" width="100%" xml:space="preserve" xmlns="http://www.w3.org/2000/svg" xmlns:vectornator="http://vectornator.io" xmlns:xlink="http://www.w3.org/1999/xlink">
<defs>
<clipPath id="TextBounds">
<rect height="39" width="282.551" x="58.8913" y="-5.78496"/>
</clipPath>
<clipPath id="TextBounds_2">
<rect height="77" width="60" x="0.890811" y="-5.68198"/>
</clipPath>
</defs>
<g id="Katman-1" vectornator:layerName="Katman 1">
<g fill="#9869ec" opacity="1" stroke="none">
<path clip-path="url(#TextBounds)" d="M74.4988 0.708691L74.4988 5.61299L70.7146 5.61299L70.7146 25.215L64.342 25.215L64.342 5.61299L60.573 5.61299L60.573 0.708691L74.4988 0.708691Z"/>
<path clip-path="url(#TextBounds)" d="M88.3186 15.5275L80.4021 15.5275L80.4021 19.8718C80.4021 20.78 80.4677 21.3653 80.5989 21.6276C80.7301 21.89 80.9823 22.0212 81.3557 22.0212C81.8199 22.0212 82.1302 21.8471 82.2866 21.499C82.443 21.1508 82.5212 20.4772 82.5212 19.4782L82.5212 16.8293L88.3186 16.8293L88.3186 18.3127C88.3186 19.5539 88.2404 20.5075 88.084 21.1735C87.9276 21.8395 87.5618 22.551 86.9866 23.3078C86.4114 24.0646 85.6823 24.6323 84.7993 25.0107C83.9163 25.3891 82.8088 25.5783 81.4768 25.5783C80.1851 25.5783 79.0448 25.3916 78.0559 25.0183C77.067 24.6449 76.2975 24.1328 75.7475 23.4819C75.1976 22.831 74.8166 22.1145 74.6047 21.3325C74.3928 20.5504 74.2869 19.4126 74.2869 17.9191L74.2869 12.0612C74.2869 10.3054 74.524 8.92036 74.9983 7.9062C75.4726 6.89204 76.2496 6.11502 77.3293 5.57515C78.4091 5.03527 79.6503 4.76533 81.053 4.76533C82.7685 4.76533 84.1837 5.09077 85.2988 5.74165C86.4139 6.39253 87.196 7.25532 87.645 8.33003C88.0941 9.40474 88.3186 10.9159 88.3186 12.8635L88.3186 15.5275ZM82.1882 12.258L82.1882 10.7897C82.1882 9.75036 82.1327 9.0793 82.0217 8.77656C81.9107 8.47383 81.6837 8.32246 81.3406 8.32246C80.9167 8.32246 80.6544 8.45112 80.5535 8.70845C80.4525 8.96577 80.4021 9.65954 80.4021 10.7897L80.4021 12.258L82.1882 12.258Z"/>
<path clip-path="url(#TextBounds)" d="M95.781 12.9089L90.0442 12.9089L90.0442 11.5617C90.0442 10.0077 90.2233 8.80936 90.5815 7.96675C90.9398 7.12414 91.6588 6.37991 92.7385 5.73408C93.8183 5.08825 95.2209 4.76533 96.9465 4.76533C99.0152 4.76533 100.574 5.13114 101.624 5.86274C102.673 6.59435 103.304 7.49246 103.516 8.55708C103.728 9.6217 103.834 11.814 103.834 15.134L103.834 25.215L97.885 25.215L97.885 23.4289C97.5116 24.1454 97.0298 24.6827 96.4394 25.041C95.8491 25.3992 95.1453 25.5783 94.3279 25.5783C93.2582 25.5783 92.2768 25.2781 91.3838 24.6777C90.4907 24.0773 90.0442 22.7629 90.0442 20.7346L90.0442 19.0847C90.0442 17.5811 90.2813 16.5568 90.7556 16.0119C91.2299 15.467 92.4055 14.8312 94.2825 14.1047C96.2906 13.3176 97.3653 12.7878 97.5066 12.5153C97.6479 12.2429 97.7185 11.6879 97.7185 10.8503C97.7185 9.80081 97.6403 9.11714 97.4839 8.79927C97.3275 8.4814 97.0676 8.32246 96.7043 8.32246C96.2906 8.32246 96.0333 8.45617 95.9324 8.72358C95.8315 8.991 95.781 9.68476 95.781 10.8049L95.781 12.9089ZM97.7185 15.6638C96.7397 16.3802 96.172 16.9807 96.0156 17.465C95.8592 17.9494 95.781 18.6457 95.781 19.5539C95.781 20.5933 95.8491 21.2644 95.9853 21.5671C96.1216 21.8698 96.3915 22.0212 96.7952 22.0212C97.1786 22.0212 97.4284 21.9026 97.5444 21.6655C97.6605 21.4283 97.7185 20.8052 97.7185 19.7961L97.7185 15.6638Z"/>
<path clip-path="url(#TextBounds)" d="M111.977 5.12861L111.871 7.03584C112.346 6.279 112.911 5.71138 113.567 5.33296C114.223 4.95454 114.969 4.76533 115.807 4.76533C117.442 4.76533 118.728 5.52217 119.667 7.03584C120.181 6.279 120.762 5.71138 121.407 5.33296C122.053 4.95454 122.77 4.76533 123.557 4.76533C124.596 4.76533 125.457 5.01761 126.138 5.52217C126.819 6.02672 127.255 6.64481 127.447 7.37642C127.639 8.10802 127.735 9.29626 127.735 10.9411L127.735 25.215L121.801 25.215L121.801 12.1218C121.801 10.4063 121.743 9.34419 121.627 8.9355C121.511 8.52681 121.241 8.32246 120.817 8.32246C120.383 8.32246 120.103 8.52428 119.977 8.92793C119.851 9.33157 119.788 10.3962 119.788 12.1218L119.788 25.215L113.854 25.215L113.854 12.4548C113.854 10.487 113.806 9.30635 113.71 8.91279C113.615 8.51924 113.35 8.32246 112.916 8.32246C112.643 8.32246 112.411 8.42589 112.219 8.63276C112.028 8.83963 111.922 9.09191 111.902 9.3896C111.881 9.68729 111.871 10.3205 111.871 11.2893L111.871 25.215L105.938 25.215L105.938 5.12861L111.977 5.12861Z"/>
</g>
<g fill="#ffffff" opacity="1" stroke="none">
<path clip-path="url(#TextBounds_2)" d="M3.6623 0.811671L14.4548 0.811671L14.4548 5.71597L10.0349 5.71597L10.0349 10.3629L13.9704 10.3629L13.9704 15.0251L10.0349 15.0251L10.0349 25.318L3.6623 25.318L3.6623 0.811671Z"/>
<path clip-path="url(#TextBounds_2)" d="M40.5959 0.811671L37.7653 25.318L29.8034 25.318C29.0768 21.554 28.4361 17.2754 27.881 12.4821C27.6288 14.5306 27.0384 18.8092 26.11 25.318L18.1935 25.318L15.3478 0.811671L21.5388 0.811671L22.1896 9.36392L22.8557 17.6134C23.0878 13.3449 23.673 7.74429 24.6115 0.811671L31.2414 0.811671C31.3322 1.52814 31.5643 4.22248 31.9377 8.89468L32.634 18.2038C32.9872 12.2803 33.5775 6.4829 34.405 0.811671L40.5959 0.811671Z"/>
<path clip-path="url(#TextBounds_2)" d="M52.569 0.811671L56.217 25.318L49.6931 25.318L49.3752 20.9132L47.0895 20.9132L46.7111 25.318L40.1115 25.318L43.3508 0.811671L52.569 0.811671ZM49.1935 16.569C48.8706 13.7939 48.5477 10.368 48.2248 6.29116C47.579 10.9735 47.1753 14.3994 47.0139 16.569L49.1935 16.569Z"/>
</g>
</g>
</svg>
