<?xml version="1.0" encoding="UTF-8" standalone="no"?>
<!DOCTYPE svg PUBLIC "-//W3C//DTD SVG 1.1//EN" "http://www.w3.org/Graphics/SVG/1.1/DTD/svg11.dtd">
<!-- Created with Vectornator (http://vectornator.io/) -->
<svg height="100%" stroke-miterlimit="10" style="fill-rule:nonzero;clip-rule:evenodd;stroke-linecap:round;stroke-linejoin:round;" version="1.1" viewBox="0 0 131 26" width="100%" xml:space="preserve" xmlns="http://www.w3.org/2000/svg" xmlns:vectornator="http://vectornator.io" xmlns:xlink="http://www.w3.org/1999/xlink">
<defs>
<clipPath id="TextBounds">
<rect height="39" width="61.6245" x="67.1666" y="-5.62785"/>
</clipPath>
<clipPath id="TextBounds_2">
<rect height="32.5753" width="76.6828" x="-1.22616" y="-5.4982"/>
</clipPath>
</defs>
<g id="Katman-1" vectornator:layerName="Katman 1">
<g fill="#ffffff" opacity="1" stroke="none">
<path clip-path="url(#TextBounds)" d="M82.7741 0.865806L82.7741 5.7701L78.9899 5.7701L78.9899 25.3722L72.6173 25.3722L72.6173 5.7701L68.8483 5.7701L68.8483 0.865806L82.7741 0.865806Z"/>
<path clip-path="url(#TextBounds)" d="M97.7291 8.2828L91.8107 8.2828L91.8107 6.46639C91.8107 5.61874 91.735 5.07886 91.5836 4.84676C91.4323 4.61467 91.18 4.49862 90.8268 4.49862C90.4433 4.49862 90.1532 4.65503 89.9564 4.96786C89.7596 5.28068 89.6613 5.75497 89.6613 6.39071C89.6613 7.20809 89.7723 7.82365 89.9943 8.23739C90.2062 8.65113 90.8066 9.15064 91.7955 9.73592C94.6311 11.4211 96.4173 12.8036 97.1539 13.8834C97.8906 14.9631 98.2589 16.7039 98.2589 19.1056C98.2589 20.8513 98.0546 22.1379 97.6459 22.9654C97.2372 23.7929 96.4476 24.4867 95.277 25.0467C94.1064 25.6068 92.7441 25.8868 91.1901 25.8868C89.4847 25.8868 88.029 25.5639 86.8231 24.9181C85.6172 24.2722 84.8276 23.4498 84.4542 22.4508C84.0809 21.4517 83.8942 20.0339 83.8942 18.1973L83.8942 16.5929L89.8126 16.5929L89.8126 19.5748C89.8126 20.4931 89.8959 21.0834 90.0624 21.3458C90.2289 21.6082 90.5241 21.7393 90.9479 21.7393C91.3717 21.7393 91.6871 21.5728 91.8939 21.2398C92.1008 20.9068 92.2042 20.4124 92.2042 19.7564C92.2042 18.3134 92.0074 17.3699 91.6139 16.9259C91.2102 16.4819 90.2163 15.7402 88.632 14.7008C87.0477 13.6513 85.9982 12.8894 85.4835 12.4151C84.9689 11.9408 84.5425 11.2849 84.2045 10.4473C83.8664 9.60978 83.6974 8.54012 83.6974 7.23836C83.6974 5.36141 83.9371 3.98902 84.4164 3.12118C84.8957 2.25334 85.6702 1.57471 86.7399 1.08529C87.8095 0.595868 89.1012 0.351158 90.6149 0.351158C92.2698 0.351158 93.6801 0.618573 94.8456 1.1534C96.0111 1.68823 96.7831 2.36182 97.1615 3.17416C97.5399 3.98649 97.7291 5.36646 97.7291 7.31405L97.7291 8.2828Z"/>
<path clip-path="url(#TextBounds)" d="M106.63 0.865806L106.63 20.4679L110.505 20.4679L110.505 25.3722L100.257 25.3722L100.257 0.865806L106.63 0.865806Z"/>
<path clip-path="url(#TextBounds)" d="M123.825 0.865806L127.473 25.3722L120.949 25.3722L120.631 20.9674L118.345 20.9674L117.967 25.3722L111.367 25.3722L114.607 0.865806L123.825 0.865806ZM120.449 16.6231C120.126 13.8481 119.804 10.4221 119.481 6.3453C118.835 11.0276 118.431 14.4535 118.27 16.6231L120.449 16.6231Z"/>
</g>
<g fill="#9869ec" opacity="1" stroke="none">
<path clip-path="url(#TextBounds_2)" d="M14.3813 0.995451L14.3813 5.89975L10.5971 5.89975L10.5971 25.5018L4.22452 25.5018L4.22452 5.89975L0.45548 5.89975L0.45548 0.995451L14.3813 0.995451Z"/>
<path clip-path="url(#TextBounds_2)" d="M28.2011 15.8143L20.2846 15.8143L20.2846 20.1585C20.2846 21.0667 20.3502 21.652 20.4814 21.9144C20.6125 22.1768 20.8648 22.308 21.2382 22.308C21.7024 22.308 22.0127 22.1339 22.1691 21.7857C22.3255 21.4376 22.4037 20.764 22.4037 19.765L22.4037 17.1161L28.2011 17.1161L28.2011 18.5995C28.2011 19.8407 28.1229 20.7943 27.9665 21.4603C27.8101 22.1263 27.4442 22.8377 26.8691 23.5946C26.2939 24.3514 25.5648 24.919 24.6818 25.2975C23.7988 25.6759 22.6913 25.8651 21.3593 25.8651C20.0676 25.8651 18.9273 25.6784 17.9384 25.305C16.9495 24.9316 16.18 24.4195 15.63 23.7686C15.0801 23.1178 14.6991 22.4013 14.4872 21.6192C14.2753 20.8372 14.1693 19.6994 14.1693 18.2059L14.1693 12.348C14.1693 10.5921 14.4065 9.20712 14.8808 8.19296C15.3551 7.1788 16.1321 6.40178 17.2118 5.86191C18.2916 5.32203 19.5328 5.05209 20.9355 5.05209C22.651 5.05209 24.0662 5.37753 25.1813 6.02841C26.2964 6.67929 27.0784 7.54208 27.5275 8.61679C27.9766 9.6915 28.2011 11.2026 28.2011 13.1502L28.2011 15.8143ZM22.0707 12.5448L22.0707 11.0765C22.0707 10.0371 22.0152 9.36606 21.9042 9.06332C21.7932 8.76059 21.5662 8.60922 21.2231 8.60922C20.7992 8.60922 20.5369 8.73788 20.4359 8.99521C20.335 9.25253 20.2846 9.9463 20.2846 11.0765L20.2846 12.5448L22.0707 12.5448Z"/>
<path clip-path="url(#TextBounds_2)" d="M35.6635 13.1956L29.9267 13.1956L29.9267 11.8485C29.9267 10.2944 30.1058 9.09612 30.464 8.25351C30.8223 7.4109 31.5413 6.66668 32.621 6.02084C33.7008 5.37501 35.1034 5.05209 36.829 5.05209C38.8977 5.05209 40.4568 5.4179 41.5063 6.1495C42.5557 6.88111 43.1864 7.77922 43.3984 8.84384C43.6103 9.90846 43.7162 12.1008 43.7162 15.4207L43.7162 25.5018L37.7675 25.5018L37.7675 23.7157C37.3941 24.4321 36.9123 24.9695 36.3219 25.3277C35.7316 25.686 35.0277 25.8651 34.2104 25.8651C33.1407 25.8651 32.1593 25.5649 31.2663 24.9644C30.3732 24.364 29.9267 23.0497 29.9267 21.0213L29.9267 19.3714C29.9267 17.8678 30.1638 16.8436 30.6381 16.2987C31.1124 15.7538 32.288 15.118 34.165 14.3914C36.1731 13.6043 37.2478 13.0746 37.3891 12.8021C37.5303 12.5296 37.601 11.9746 37.601 11.1371C37.601 10.0876 37.5228 9.4039 37.3664 9.08603C37.21 8.76816 36.9501 8.60922 36.5868 8.60922C36.1731 8.60922 35.9158 8.74293 35.8149 9.01034C35.7139 9.27776 35.6635 9.97153 35.6635 11.0916L35.6635 13.1956ZM37.601 15.9505C36.6221 16.667 36.0545 17.2674 35.8981 17.7518C35.7417 18.2362 35.6635 18.9325 35.6635 19.8407C35.6635 20.8801 35.7316 21.5511 35.8678 21.8538C36.0041 22.1566 36.274 22.308 36.6776 22.308C37.0611 22.308 37.3109 22.1894 37.4269 21.9522C37.543 21.7151 37.601 21.092 37.601 20.0829L37.601 15.9505Z"/>
<path clip-path="url(#TextBounds_2)" d="M51.8598 5.41537L51.7538 7.3226C52.2281 6.56576 52.7932 5.99814 53.4491 5.61972C54.1051 5.2413 54.8518 5.05209 55.6894 5.05209C57.3241 5.05209 58.6108 5.80893 59.5492 7.3226C60.0639 6.56576 60.6441 5.99814 61.29 5.61972C61.9358 5.2413 62.6523 5.05209 63.4394 5.05209C64.4788 5.05209 65.339 5.30437 66.0202 5.80893C66.7013 6.31349 67.1378 6.93157 67.3295 7.66318C67.5212 8.39478 67.6171 9.58302 67.6171 11.2279L67.6171 25.5018L61.6835 25.5018L61.6835 12.4085C61.6835 10.693 61.6255 9.63095 61.5094 9.22226C61.3934 8.81357 61.1234 8.60922 60.6996 8.60922C60.2657 8.60922 59.9857 8.81104 59.8595 9.21469C59.7334 9.61834 59.6703 10.683 59.6703 12.4085L59.6703 25.5018L53.7367 25.5018L53.7367 12.7415C53.7367 10.7738 53.6888 9.59311 53.5929 9.19955C53.4971 8.806 53.2322 8.60922 52.7983 8.60922C52.5258 8.60922 52.2937 8.71266 52.102 8.91952C51.9102 9.12639 51.8043 9.37867 51.7841 9.67636C51.7639 9.97405 51.7538 10.6073 51.7538 11.576L51.7538 25.5018L45.8202 25.5018L45.8202 5.41537L51.8598 5.41537Z"/>
</g>
</g>
</svg>
