<?xml version="1.0" encoding="UTF-8" standalone="no"?>
<!DOCTYPE svg PUBLIC "-//W3C//DTD SVG 1.1//EN" "http://www.w3.org/Graphics/SVG/1.1/DTD/svg11.dtd">
<!-- Created with Vectornator (http://vectornator.io/) -->
<svg height="100%" stroke-miterlimit="10" style="fill-rule:nonzero;clip-rule:evenodd;stroke-linecap:round;stroke-linejoin:round;" version="1.1" viewBox="0 0 131 26" width="100%" xml:space="preserve" xmlns="http://www.w3.org/2000/svg" xmlns:vectornator="http://vectornator.io" xmlns:xlink="http://www.w3.org/1999/xlink">
<defs>
<clipPath id="TextBounds">
<rect height="39" width="61.6245" x="67.1666" y="-5.62785"/>
</clipPath>
<clipPath id="TextBounds_2">
<rect height="37" width="71.3574" x="-1.16681" y="-4.89428"/>
</clipPath>
</defs>
<g id="Katman-1" vectornator:layerName="Katman 1">
<g opacity="1">
<g fill="#ffffff" opacity="1" stroke="none">
<path clip-path="url(#TextBounds)" d="M82.7741 0.865806L82.7741 5.7701L78.9899 5.7701L78.9899 25.3722L72.6173 25.3722L72.6173 5.7701L68.8483 5.7701L68.8483 0.865806L82.7741 0.865806Z"/>
<path clip-path="url(#TextBounds)" d="M97.7291 8.2828L91.8107 8.2828L91.8107 6.46639C91.8107 5.61874 91.735 5.07886 91.5836 4.84676C91.4323 4.61467 91.18 4.49862 90.8268 4.49862C90.4433 4.49862 90.1532 4.65503 89.9564 4.96786C89.7596 5.28068 89.6613 5.75497 89.6613 6.39071C89.6613 7.20809 89.7723 7.82365 89.9943 8.23739C90.2062 8.65113 90.8066 9.15064 91.7955 9.73592C94.6311 11.4211 96.4173 12.8036 97.1539 13.8834C97.8906 14.9631 98.2589 16.7039 98.2589 19.1056C98.2589 20.8513 98.0546 22.1379 97.6459 22.9654C97.2372 23.7929 96.4476 24.4867 95.277 25.0467C94.1064 25.6068 92.7441 25.8868 91.1901 25.8868C89.4847 25.8868 88.029 25.5639 86.8231 24.9181C85.6172 24.2722 84.8276 23.4498 84.4542 22.4508C84.0809 21.4517 83.8942 20.0339 83.8942 18.1973L83.8942 16.5929L89.8126 16.5929L89.8126 19.5748C89.8126 20.4931 89.8959 21.0834 90.0624 21.3458C90.2289 21.6082 90.5241 21.7393 90.9479 21.7393C91.3717 21.7393 91.6871 21.5728 91.8939 21.2398C92.1008 20.9068 92.2042 20.4124 92.2042 19.7564C92.2042 18.3134 92.0074 17.3699 91.6139 16.9259C91.2102 16.4819 90.2163 15.7402 88.632 14.7008C87.0477 13.6513 85.9982 12.8894 85.4835 12.4151C84.9689 11.9408 84.5425 11.2849 84.2045 10.4473C83.8664 9.60978 83.6974 8.54012 83.6974 7.23836C83.6974 5.36141 83.9371 3.98902 84.4164 3.12118C84.8957 2.25334 85.6702 1.57471 86.7399 1.08529C87.8095 0.595868 89.1012 0.351158 90.6149 0.351158C92.2698 0.351158 93.6801 0.618573 94.8456 1.1534C96.0111 1.68823 96.7831 2.36182 97.1615 3.17416C97.5399 3.98649 97.7291 5.36646 97.7291 7.31405L97.7291 8.2828Z"/>
<path clip-path="url(#TextBounds)" d="M106.63 0.865806L106.63 20.4679L110.505 20.4679L110.505 25.3722L100.257 25.3722L100.257 0.865806L106.63 0.865806Z"/>
<path clip-path="url(#TextBounds)" d="M123.825 0.865806L127.473 25.3722L120.949 25.3722L120.631 20.9674L118.345 20.9674L117.967 25.3722L111.367 25.3722L114.607 0.865806L123.825 0.865806ZM120.449 16.6231C120.126 13.8481 119.804 10.4221 119.481 6.3453C118.835 11.0276 118.431 14.4535 118.27 16.6231L120.449 16.6231Z"/>
</g>
<g fill="#8b8b8b" opacity="1" stroke="none">
<path clip-path="url(#TextBounds_2)" d="M13.9855 1.3899L13.9855 6.136L10.3234 6.136L10.3234 25.1057L4.15644 25.1057L4.15644 6.136L0.508976 6.136L0.508976 1.3899L13.9855 1.3899Z"/>
<path clip-path="url(#TextBounds_2)" d="M27.3596 15.7307L19.6984 15.7307L19.6984 19.9348C19.6984 20.8137 19.7619 21.3801 19.8889 21.634C20.0158 21.888 20.26 22.0149 20.6213 22.0149C21.0705 22.0149 21.3708 21.8464 21.5222 21.5095C21.6735 21.1726 21.7492 20.5208 21.7492 19.554L21.7492 16.9905L27.3596 16.9905L27.3596 18.426C27.3596 19.6272 27.2839 20.5501 27.1325 21.1946C26.9811 21.8391 26.6271 22.5276 26.0705 23.26C25.5139 23.9924 24.8083 24.5418 23.9538 24.908C23.0993 25.2742 22.0275 25.4573 20.7385 25.4573C19.4885 25.4573 18.385 25.2766 17.4279 24.9153C16.4709 24.554 15.7263 24.0584 15.194 23.4285C14.6618 22.7986 14.2932 22.1052 14.0881 21.3484C13.883 20.5916 13.7805 19.4905 13.7805 18.0452L13.7805 12.3762C13.7805 10.677 14.01 9.33668 14.4689 8.35524C14.9279 7.37379 15.6799 6.62184 16.7248 6.09938C17.7697 5.57692 18.9709 5.31569 20.3283 5.31569C21.9885 5.31569 23.3581 5.63063 24.4372 6.26051C25.5163 6.89039 26.2731 7.72535 26.7077 8.76539C27.1423 9.80543 27.3596 11.2678 27.3596 13.1526L27.3596 15.7307ZM21.4269 12.5667L21.4269 11.1458C21.4269 10.1399 21.3732 9.49049 21.2658 9.19752C21.1584 8.90455 20.9387 8.75807 20.6066 8.75807C20.1965 8.75807 19.9426 8.88258 19.8449 9.1316C19.7473 9.38063 19.6984 10.052 19.6984 11.1458L19.6984 12.5667L21.4269 12.5667Z"/>
<path clip-path="url(#TextBounds_2)" d="M34.5812 13.1965L29.0295 13.1965L29.0295 11.8928C29.0295 10.3889 29.2028 9.22926 29.5495 8.41383C29.8962 7.5984 30.592 6.87819 31.6369 6.25319C32.6818 5.62819 34.0392 5.31569 35.7092 5.31569C37.7111 5.31569 39.2199 5.66969 40.2355 6.3777C41.2512 7.0857 41.8615 7.95485 42.0666 8.98512C42.2717 10.0154 42.3742 12.137 42.3742 15.3499L42.3742 25.1057L36.6174 25.1057L36.6174 23.3772C36.256 24.0706 35.7897 24.5906 35.2184 24.9373C34.6472 25.2839 33.966 25.4573 33.175 25.4573C32.1398 25.4573 31.1901 25.1668 30.3259 24.5857C29.4616 24.0047 29.0295 22.7327 29.0295 20.7698L29.0295 19.1731C29.0295 17.718 29.259 16.7268 29.718 16.1995C30.1769 15.6721 31.3146 15.0569 33.131 14.3538C35.0744 13.5921 36.1144 13.0794 36.2512 12.8157C36.3879 12.552 36.4562 12.0149 36.4562 11.2044C36.4562 10.1887 36.3806 9.52711 36.2292 9.21949C36.0778 8.91188 35.8264 8.75807 35.4748 8.75807C35.0744 8.75807 34.8254 8.88746 34.7277 9.14625C34.6301 9.40504 34.5812 10.0764 34.5812 11.1604L34.5812 13.1965ZM36.4562 15.8626C35.509 16.5559 34.9597 17.137 34.8083 17.6057C34.6569 18.0745 34.5812 18.7483 34.5812 19.6272C34.5812 20.6331 34.6472 21.2825 34.779 21.5755C34.9108 21.8684 35.1721 22.0149 35.5627 22.0149C35.9338 22.0149 36.1755 21.9002 36.2878 21.6707C36.4001 21.4412 36.4562 20.8381 36.4562 19.8616L36.4562 15.8626Z"/>
<path clip-path="url(#TextBounds_2)" d="M50.2551 5.66725L50.1525 7.51295C50.6115 6.78053 51.1584 6.23121 51.7932 5.865C52.4279 5.49879 53.1506 5.31569 53.9611 5.31569C55.5432 5.31569 56.7883 6.04811 57.6965 7.51295C58.1945 6.78053 58.756 6.23121 59.381 5.865C60.006 5.49879 60.6994 5.31569 61.4611 5.31569C62.467 5.31569 63.2995 5.55983 63.9587 6.04811C64.6179 6.53639 65.0402 7.13453 65.2258 7.84254C65.4113 8.55055 65.5041 9.70045 65.5041 11.2922L65.5041 25.1057L59.7619 25.1057L59.7619 12.4348C59.7619 10.7747 59.7058 9.74684 59.5934 9.35133C59.4811 8.95582 59.2199 8.75807 58.8098 8.75807C58.3898 8.75807 58.1188 8.95338 57.9968 9.34401C57.8747 9.73463 57.8137 10.7649 57.8137 12.4348L57.8137 25.1057L52.0715 25.1057L52.0715 12.7571C52.0715 10.8528 52.0251 9.71022 51.9323 9.32936C51.8395 8.9485 51.5832 8.75807 51.1633 8.75807C50.8996 8.75807 50.675 8.85817 50.4894 9.05836C50.3039 9.25856 50.2014 9.5027 50.1818 9.79078C50.1623 10.0789 50.1525 10.6917 50.1525 11.6292L50.1525 25.1057L44.4103 25.1057L44.4103 5.66725L50.2551 5.66725Z"/>
</g>
</g>
</g>
</svg>
